<?xml version="1.0" encoding="UTF-8" standalone="no"?>
<svg width="360px" height="640px" viewBox="0 0 360 640" version="1.1" xmlns="http://www.w3.org/2000/svg" xmlns:xlink="http://www.w3.org/1999/xlink" xmlns:sketch="http://www.bohemiancoding.com/sketch/ns">
    <!-- Generator: Sketch 3.2.2 (9983) - http://www.bohemiancoding.com/sketch -->
    <title>Artboard 1</title>
    <desc>Created with Sketch.</desc>
    <defs>
        <rect id="path-1" x="0" y="0" width="360" height="640" rx="3"></rect>
        <linearGradient x1="0%" y1="40.2796%" x2="100%" y2="39.6945953%" id="linearGradient-3">
            <stop stop-color="#4D2733" offset="0%"></stop>
            <stop stop-color="#2A2134" offset="47.2954628%"></stop>
            <stop stop-color="#1B3642" offset="100%"></stop>
        </linearGradient>
        <radialGradient cx="88.9035467%" cy="16.5054694%" fx="88.9035467%" fy="16.5054694%" r="55.4104122%" id="radialGradient-4">
            <stop stop-color="#08B5E6" offset="0%"></stop>
            <stop stop-color="#4F7D73" stop-opacity="0" offset="100%"></stop>
        </radialGradient>
        <linearGradient x1="85.2198428%" y1="19.8399383%" x2="50%" y2="100%" id="linearGradient-5">
            <stop stop-color="#E88970" offset="0%"></stop>
            <stop stop-color="#F9967F" offset="100%"></stop>
        </linearGradient>
    </defs>
    <g id="Page-1" stroke="none" stroke-width="1" fill="none" fill-rule="evenodd" sketch:type="MSPage">
        <g id="Artboard-1" sketch:type="MSArtboardGroup">
            <g id="box-01" sketch:type="MSLayerGroup">
                <mask id="mask-2" sketch:name="Mask" fill="white">
                    <use xlink:href="#path-1"></use>
                </mask>
                <use id="Mask" stroke="#000000" stroke-width="2" stroke-linecap="round" stroke-linejoin="round" fill="#2A2139" sketch:type="MSShapeGroup" xlink:href="#path-1"></use>
                <rect id="bg-gradient-2" opacity="0.737056903" fill="url(#linearGradient-3)" sketch:type="MSShapeGroup" mask="url(#mask-2)" x="-7.8359375" y="-12.8007812" width="378" height="655.800781"></rect>
                <rect id="bg-gradient" opacity="0.246268657" fill="url(#radialGradient-4)" sketch:type="MSShapeGroup" mask="url(#mask-2)" x="-7.8359375" y="-12.8007812" width="378" height="656.800781"></rect>
                <g id="STROOPY-12" mask="url(#mask-2)">
                    <g transform="translate(43.000000, 469.000000) rotate(29.000000) translate(-43.000000, -469.000000) translate(-9.000000, 363.000000)">
                        <path d="M97.6668383,185.484564 C97.6668383,185.484564 98.1330392,190.324671 98.0100692,190.480151 C97.6668383,190.54363 97.3424146,190.53811 97.1040698,190.460831 C96.267874,190.189431 93.5791717,186.545321 93.5791717,186.545321 C93.0598044,182.571392 92.2684564,179.62878 91.9498195,178.538123 C91.9024399,178.345843 91.855422,178.173344 91.806234,178.056504 C91.806234,178.056504 91.4156235,172.390699 91.1808955,171.630321 C91.1808955,171.630321 93.7390326,175.66773 96.1347771,176.249169 C96.1347771,176.249169 95.9434503,182.103113 97.6668383,185.484564" id="Fill-61" fill="none" sketch:type="MSShapeGroup"></path>
                        <path d="M91.1808955,171.630321 C91.4941073,172.989618 91.806234,178.056504 91.806234,178.056504 C91.8322747,178.276843 91.8858028,178.651282 91.9563297,179.113121 C92.2011846,181.239695 92.276775,184.291327 92.276775,184.291327 C91.5454653,184.025448 88.8856971,181.770534 88.8856971,181.770534 C88.9916683,175.67049 87.2700886,170.563584 87.2700886,170.563584 C87.1380768,169.368507 86.6451118,164.198121 86.6451118,164.198121 C88.2542101,168.076371 91.1808955,171.630321 91.1808955,171.630321" id="Fill-64" fill="none" sketch:type="MSShapeGroup"></path>
                        <path d="M87.2700886,170.563584 C87.6357435,173.084377 87.7409913,179.5837 87.7409913,179.5837 C87.2187306,179.186721 85.2884637,176.863267 85.2884637,176.863267 C84.6110438,169.833106 85.02878,160.549411 85.02878,160.549411 C85.02878,160.549411 86.1496152,163.103324 86.6451118,164.198121 C86.6451118,164.198121 86.8747763,169.193248 87.2700886,170.563584" id="Fill-67" fill="none" sketch:type="MSShapeGroup"></path>
                        <path d="M9.50953232,124.748497 L7.75066934,135.784941 C7.75066934,140.946428 18.3460599,144.762853 29.1341222,144.762853 L74.0180718,144.762853 C84.8054598,144.762853 95.6938181,139.741883 95.6938181,134.580395 L94.183176,124.748497 C94.183176,118.55872 84.1877466,101.189884 51.8463556,101.189884 C19.5049645,101.189884 9.50953232,118.55872 9.50953232,124.748497 Z" id="Imported-Layers" fill="#08B5E5" fill-rule="evenodd" sketch:type="MSShapeGroup"></path>
                        <path d="M93.9610154,123.826289 L101.742517,172.519294 C105.003386,192.92413 92.2239249,196.766613 84.2378544,193.096863 L84.2378544,203.047949 C84.2378544,207.610341 81.3100656,211.34027 77.7327257,211.34027 L64.7233425,211.34027 C61.1468768,211.34027 58.2208365,207.610341 58.2208365,203.047949 L58.2208365,199.239488 C55.981065,199.51809 53.8295905,199.64179 51.8582069,199.64179 C49.8885718,199.64179 47.7370973,199.51809 45.4973258,199.239488 L45.4973258,203.047949 C45.4973258,207.610341 42.5712855,211.34027 38.9939456,211.34027 L25.9845624,211.34027 C22.4080967,211.34027 19.4794337,207.610341 19.4794337,203.047949 L19.4794337,193.111351 C11.4916148,196.756584 -1.25724851,192.901842 2.00187254,172.519294 L9.7658892,123.924357" id="Fill-1" fill="#08B5E5" fill-rule="evenodd" sketch:type="MSShapeGroup"></path>
                        <path d="M98.7255567,173.303838 C99.6207659,178.91266 99.5822999,185.720588 95.1333548,188.838705 C93.7783018,189.789296 92.2169311,190.257348 90.6826614,190.37659 C88.5399291,190.543751 86.1830111,190.043382 84.2413513,188.855421 L84.2378544,185.000679 C85.1409316,183.537459 85.9093778,181.938282 86.5117208,180.19646 C87.426163,177.551967 87.875516,174.741426 87.875516,171.855106 L87.875516,130.581839 C87.875516,129.187713 87.7837221,127.820333 87.6132477,126.48527 C87.7435077,126.451838 87.8318047,126.425092 87.9183532,126.399461 L88.143904,126.334825 C88.2584278,126.299164 88.3712032,126.266846 88.4831043,126.231185 L88.7051582,126.159863 C88.792581,126.132002 88.880878,126.104142 88.969175,126.075168 L89.1676247,126.007189 C89.2891423,125.96707 89.4097858,125.923608 89.5313034,125.880146 L89.6432046,125.840027 C89.7708418,125.790993 89.8976048,125.744188 90.0252421,125.696268 L90.2018361,125.630518 C90.3189826,125.583713 90.4370034,125.535793 90.5541499,125.488988 L90.7569707,125.405408 C90.8417708,125.369746 90.9265709,125.334085 91.0122452,125.298424 L98.7255567,173.303838 Z" id="Fill-2" opacity="0.261777052" fill="#0099C4" fill-rule="evenodd" sketch:type="MSShapeGroup"></path>
                        <path d="M15.6564358,126.406147 L8.03754094,174.086153 C7.44918566,177.771505 7.04529244,183.263315 10.0954731,185.400752 C11.0431359,186.062711 12.1752609,186.37586 13.2496868,186.459441 C14.156261,186.52742 15.1284022,186.44161 16.0681971,186.194212 C15.3609468,185.955728 14.6633131,185.550083 14.0469825,184.927128 C10.9959276,181.85693 11.4006951,173.978056 11.9890504,168.687954 L15.8417721,134.066597 L15.8417721,130.581839 C15.8417721,129.203315 15.9318175,127.850422 16.0996693,126.528732 C15.9519248,126.488613 15.8041803,126.448495 15.6564358,126.406147" id="Fill-4" opacity="0.261777052" fill="#0099C4" fill-rule="evenodd" sketch:type="MSShapeGroup"></path>
                        <path d="M84.2378544,130.581839 L84.2378544,171.855106 C84.2378544,202.719788 19.4794337,202.719788 19.4794337,171.855106 L19.4794337,130.581839 C19.4794337,129.43957 19.5554916,128.320703 19.6962422,127.227467 C20.6902392,127.346709 19.6997365,98.7928921 51.8586437,98.7928921 C84.0175508,98.7928921 82.9710984,127.343365 84.017549,127.208522 C84.1600481,128.30733 84.2378544,129.432883 84.2378544,130.581839 Z" id="Fill-5" opacity="0.0844216418" fill="#FFFFFF" fill-rule="evenodd" sketch:type="MSShapeGroup"></path>
                        <path d="M22.5602123,130.581839 L22.5602123,171.855106 C22.5602123,186.068283 37.0470404,191.554521 44.2454317,190.959426 C37.0890033,190.371018 28.2278308,186.634403 28.2278308,171.855106 L28.2278308,130.581839 C28.2278308,129.498633 31.7218881,101.775235 30.16694,100.872616 C28.6119919,99.9699966 22.7621589,127.409116 22.7621589,127.409116 C22.6310248,128.436601 22.5602123,129.498633 22.5602123,130.581839 Z" id="Fill-6" opacity="0.110832556" fill="#0099C4" fill-rule="evenodd" sketch:type="MSShapeGroup"></path>
                        <path d="M52.1803255,170.244784 C53.2152155,170.244784 54.0526316,171.116511 54.0526316,172.193094 C54.0526316,173.27113 53.2152155,174.142857 52.1803255,174.142857 C51.1464915,174.142857 50.3090754,173.27113 50.3090754,172.193094 C50.3090754,171.116511 51.1464915,170.244784 52.1803255,170.244784" id="Fill-8" fill="#FFFFFF" fill-rule="evenodd" sketch:type="MSShapeGroup"></path>
                        <g id="STROOPY-HEAD" stroke-width="1" fill="none" fill-rule="evenodd" sketch:type="MSLayerGroup" transform="translate(0.342105, 0.410488)">
                            <path d="M52.5285219,17.4781428 L52.5285219,12.2890174 L52.5285219,12.2890174 C55.5069377,11.9899458 57.8294332,9.45692319 57.8303813,6.37721651 C57.8303813,3.09389712 55.1935899,0.435874907 51.9387532,0.435874907 C48.6859362,0.436893306 46.0481349,3.09389712 46.047125,6.37721651 L49.076759,6.37721651 C49.0797886,4.78240318 50.359304,3.49412805 51.9387532,3.49107285 C53.521232,3.49412805 54.7977178,4.78138478 54.8007474,6.37721651 C54.7977178,7.96999304 53.5202221,9.26030497 51.9387532,9.26336017 C50.3603139,9.26030497 49.0797886,7.96897464 49.076759,6.37721651 L47.561942,6.37721651 L46.047125,6.37721651 C46.0488387,9.16113538 47.9463953,11.4964169 50.508766,12.1416448 L50.508766,17.4620432 C47.0849083,17.6629301 43.9692717,19.015632 41.5198421,21.1368778 C41.2603034,21.3629624 40.6715446,21.5971943 40.4008973,21.8395733 C39.9575608,22.241841 39.4001082,23.2205228 39.4001082,23.9171079 L39.4001082,28.8380134 C39.4001082,29.5335801 39.9464522,29.5936657 40.394838,29.0763188 C40.6644754,28.7636703 41.1118514,28.4622241 41.3865382,28.1729987 C43.6800479,25.7485715 46.9697585,24.1621797 50.508766,23.9254953 L50.508766,26.9875818 L52.5285219,26.9875818 L52.5285219,23.9388982 C55.9979417,24.2191476 59.0983898,25.8148073 61.3568753,28.2269738 C61.6467102,28.5375856 61.7577968,28.8614366 61.996128,29.1975084 C62.3930101,29.7545728 62.6273018,29.6089417 62.6273018,28.9072646 L62.6273018,23.9863591 C62.6273018,23.2836635 62.3950298,22.3874721 61.9920885,21.948542 C61.7497178,21.6827398 61.5780385,21.4261032 61.2983023,21.1816874 C58.8984405,19.0850513 55.8763479,17.7288593 52.5285219,17.4781428 Z" id="Fill-1" fill="#5B6A72" sketch:type="MSShapeGroup"></path>
                            <path d="M3.71707957,71.5588463 C3.71707957,98.1798044 25.1204335,119.762741 51.518644,119.762741 C77.919884,119.762741 99.3202083,98.1798044 99.3202083,71.5588463 C99.3202083,44.934833 77.919884,23.3539331 51.518644,23.3539331 C25.1204335,23.3539331 3.71707957,44.934833 3.71707957,71.5588463" id="Fill-6" stroke="#00A0CC" stroke-width="1.3" fill="#08B5E5" sketch:type="MSShapeGroup"></path>
                            <path d="M102.748744,62.098935 C89.341604,49.8363889 71.2112646,43.2819709 52.0235829,43.2819709 L51.013705,43.2819709 C31.4887241,43.2819709 13.6956839,49.8363889 0.289553697,62.098935 C1.89626957,88.9520882 23.9843208,109.601153 51.013705,109.61541 L52.2407067,109.746784 C79.5074122,109.732526 101.141018,88.9520882 102.748744,62.098935 Z" id="Fill-22" fill="#DCF2F9" sketch:type="MSShapeGroup"></path>
                            <path d="M26.4807392,50.8995978 C21.8433795,52.6390238 17.4908054,54.8357111 13.4593725,57.4896597 C13.1927647,60.7515927 13.0483521,64.1143473 13.0483521,67.5687578 C13.0483521,73.8858887 13.5098664,79.9127759 14.3743219,85.5373953 C18.5501674,91.7598151 24.1852865,96.8803268 30.8858269,100.490552 C27.4906171,92.139678 25.1668879,80.6623177 25.1668879,67.5687578 C25.1668879,61.6345449 25.6445602,56.0313119 26.4807392,50.8995978" id="Fill-25" opacity="0.614680504" fill="#FFFFFF" sketch:type="MSShapeGroup"></path>
                            <g id="Fill-23-+-Oval-9" transform="translate(36.032182, 59.131616)" sketch:type="MSShapeGroup">
                                <path d="M0.0176189182,9.38820361 C0.0176189182,14.5437936 1.99571741,18.7235307 4.43583509,18.7235307 C6.87721511,18.7235307 8.85405126,14.5437936 8.85405126,9.38820361 C8.85405126,4.23136894 6.87721511,0.0528765529 4.43583509,0.0528765529 C1.99571741,0.0528765529 0.0176189182,4.23136894 0.0176189182,9.38820361" id="Fill-23" fill="#5B6A72"></path>
                                <ellipse id="Oval-9" fill="#FFFFFF" cx="3.88954073" cy="6.02266458" rx="1.66694603" ry="1.64254489"></ellipse>
                            </g>
                            <path d="M39.5883339,91.1610732 C39.5883339,91.1610732 49.5582587,105.439847 63.2748432,90.489291" id="lips" stroke="#5B6A72" stroke-width="2" stroke-linecap="round" stroke-linejoin="round" sketch:type="MSShapeGroup"></path>
                            <g id="Fill-24-+-Oval-10" transform="translate(57.369092, 59.131616)" sketch:type="MSShapeGroup">
                                <path d="M0.502505885,9.38820361 C0.502505885,14.5437936 2.43664664,18.7235307 4.82253947,18.7235307 C7.2096666,18.7235307 9.14257306,14.5437936 9.14257306,9.38820361 C9.14257306,4.23136894 7.2096666,0.0528765529 4.82253947,0.0528765529 C2.43664664,0.0528765529 0.502505885,4.23136894 0.502505885,9.38820361" id="Fill-24" fill="#5B6A72"></path>
                                <ellipse id="Oval-10" fill="#FFFFFF" cx="3.80310649" cy="6.02266458" rx="1.62990278" ry="1.64254489"></ellipse>
                            </g>
                        </g>
                    </g>
                </g>
                <g id="RABELAIS-7" mask="url(#mask-2)">
                    <g transform="translate(208.000000, 430.000000)">
                        <path d="M50.3854415,13.4333483 L50.3854415,9.44509112 L50.3854415,9.44509112 C52.7030153,9.21523069 54.5102025,7.26840059 54.5109403,4.9014001 C54.5109403,2.37790698 52.4591922,0.33500467 49.9265289,0.33500467 C47.3954372,0.335787391 45.3429034,2.37790698 45.3421176,4.9014001 L47.6995454,4.9014001 C47.7019028,3.67565872 48.6975232,2.68551641 49.9265289,2.68316824 C51.1578921,2.68551641 52.151155,3.67487599 52.1535124,4.9014001 C52.151155,6.12557604 51.1571063,7.11728379 49.9265289,7.11963196 C48.698309,7.11728379 47.7019028,6.12479332 47.6995454,4.9014001 L46.5208315,4.9014001 L45.3421176,4.9014001 C45.343451,7.04106405 46.8199834,8.83591439 48.813823,9.33182354 L48.813823,13.4209745 C46.1496405,13.5753721 43.7252921,14.6150315 41.8193345,16.2453783 C41.6173816,16.4191424 41.1592547,16.5991683 40.9486579,16.785456 C40.6372314,17.0645677 40.2534375,17.7047326 40.1817442,18.2204876 C25.8336085,20.5483821 15.3252034,28.0833356 15.3252034,37.0203246 C15.3252034,47.813386 30.6536829,56.5633816 49.5621281,56.5633816 C68.4726486,56.5633816 83.8018198,47.813386 83.8018198,37.0203246 C83.8018198,27.9345355 72.9400832,20.297858 58.2235474,18.1085579 C58.168551,17.6417511 58.0020785,17.1412282 57.7492603,16.8692071 C57.5606661,16.6649169 57.4270785,16.4676711 57.2094094,16.2798181 C55.3420216,14.6683858 52.9904619,13.626044 50.3854415,13.4333483 Z" id="Fill-28" stroke="none" fill="#5B6A72" fill-rule="evenodd" sketch:type="MSShapeGroup"></path>
                        <path d="M82.5146513,91.9447788 L82.5146513,85.8050518 C82.5146513,61.819345 18.3431729,61.819345 18.3431729,85.8050518 L18.3431729,91.9447788 L18.3431729,91.9447788 L7.96543702,91.9447788 C4.5745097,91.9447788 1.84062962,94.6886055 1.84062962,98.0732872 C1.84062962,101.451082 4.5827993,104.201796 7.96543702,104.201796 L18.3431729,104.201796 L18.3431729,107.58771 L18.3431729,129.370369 C18.3431729,135.261697 22.2145316,139.706007 28.0554961,142.7033 L28.0555007,157.291859 C28.0555007,160.682787 30.7993274,163.416667 34.1840091,163.416667 C37.5618036,163.416667 40.3125174,160.674497 40.3125174,157.291859 L40.3125174,146.540148 L40.3125174,146.540148 C41.7875283,146.786725 43.2943132,146.977658 44.8185318,147.112948 L44.8185318,147.112948 L44.8185318,157.294648 C44.8185318,160.675539 47.5623584,163.416667 50.9470401,163.416667 C54.3248347,163.416667 57.0755485,160.675745 57.0755485,157.294648 L57.0755485,147.012095 C58.6034834,146.850204 60.1103865,146.631756 61.5815628,146.356752 L61.5815628,157.288125 C61.5815628,160.682205 64.3253894,163.416667 67.7100711,163.416667 C71.0878657,163.416667 73.8385795,160.672825 73.8385795,157.288125 L73.8385795,142.144442 L73.8385795,142.144442 C79.0967618,139.16394 82.5146513,134.905916 82.5146513,129.370369 L82.5146513,107.58771 L82.5146513,107.58771 L82.5146513,104.201796 L93.4025812,104.201796 C96.7935085,104.201796 99.5273886,101.457969 99.5273886,98.0732872 C99.5273886,94.6954926 96.7852189,91.9447788 93.4025812,91.9447788 L82.5146513,91.9447788 Z" id="Fill-8" stroke="none" fill="url(#linearGradient-5)" fill-rule="evenodd" sketch:type="MSShapeGroup"></path>
                        <path d="M9.92968971,44.1245746 C1.71340889,46.9629693 0.436381488,51.8210175 0.436381488,57.3366754 C0.436381488,62.8502675 1.71340889,67.709693 9.92968971,70.5487763 L9.92968971,44.1245746" id="Fill-14" stroke="none" fill="#5B6A72" fill-rule="evenodd" sketch:type="MSShapeGroup"></path>
                        <path d="M89.1966418,44.1245746 C97.4129226,46.9629693 98.68995,51.8210175 98.68995,57.3366754 C98.68995,62.8502675 97.4129226,67.709693 89.1966418,70.5487763 L89.1966418,44.1245746" id="Fill-15" stroke="none" fill="#5B6A72" fill-rule="evenodd" sketch:type="MSShapeGroup"></path>
                        <path d="M12.2267171,79.5996886 C3.5552445,72.4892412 5.16571026,43.5661228 12.2267171,34.8698377 C23.9489431,20.4272149 73.6464774,21.7403684 86.8332034,34.8698377 C94.775539,42.7763026 94.8440253,71.7579518 86.8332034,79.5996886 C73.5330253,92.6141623 26.6240596,91.4029211 12.2267171,79.5996886 Z" id="Fill-16" stroke="#E18168" stroke-width="1" stroke-linecap="square" fill="#E88970" fill-rule="evenodd" sketch:type="MSShapeGroup"></path>
                        <path d="M15.2267171,79.5996886 C6.5552445,72.4892412 8.16571026,43.5661228 15.2267171,34.8698377 C26.9489431,20.4272149 29.6240596,91.4029211 15.2267171,79.5996886 Z" id="Fill-57" stroke="none" opacity="0.0820895522" fill="#FFFFFF" fill-rule="evenodd" sketch:type="MSShapeGroup"></path>
                        <path d="M51.4889768,89.8664047 C33.3618164,89.8512128 19.2932001,83.2219156 19.2421875,82.3458417 C19.1911749,81.4697678 18.0141602,86.2174237 51.9868164,86.6012128 C85.9594727,86.9850019 83.0433131,81.9521456 83.1171875,83.2208417 C83.1910619,84.4895378 69.6161373,89.8815966 51.4889768,89.8664047 Z" id="Fill-52" stroke="none" opacity="0.349638526" fill="#D67258" fill-rule="evenodd" sketch:type="MSShapeGroup" transform="translate(51.189772, 86.052315) scale(1, -1) rotate(-180.000000) translate(-51.189772, -86.052315) "></path>
                        <path d="M39.8781958,70.1158928 C39.8781958,70.1158928 47.6360236,81.0902703 58.3092134,69.5995746" id="lips-2" stroke="#5B6A72" stroke-width="2" stroke-linecap="round" stroke-linejoin="round" fill="none" sketch:type="MSShapeGroup"></path>
                        <path d="M78.4984849,57.4457907 L78.4953417,57.4457907 C75.9178872,58.0085673 73.2414208,58.3052186 70.4942315,58.3052186 C67.7478281,58.3052186 65.0713617,58.0085673 62.4939072,57.4457907 L62.490764,57.4457907 C65.0690043,58.00935 67.7462565,58.3060013 70.4942315,58.3060013 C73.2429924,58.3060013 75.9202446,58.00935 78.4984849,57.4457907" id="Fill-20" stroke="none" fill="#40B3D1" fill-rule="evenodd" sketch:type="MSShapeGroup"></path>
                        <path d="M80.365205,50.5111004 C80.4471913,56.1793076 75.8552393,60.8413158 70.1082872,60.9207899 C64.3598968,60.9995544 59.6384927,56.4702396 59.5579447,50.8006132 C59.4759584,45.132406 64.0693489,40.4703978 69.8155817,40.3895045 C75.5610954,40.3093208 80.2839379,44.8400548 80.365205,50.5111004" id="Fill-21" stroke="none" fill="#5B6A72" fill-rule="evenodd" sketch:type="MSShapeGroup"></path>
                        <g id="Fill-41-+-Oval-71" stroke="none" stroke-width="1" fill="none" fill-rule="evenodd" sketch:type="MSLayerGroup" transform="translate(18.294521, 39.865827)">
                            <path d="M21.0775338,10.6452735 C21.1595201,16.3134807 16.567568,20.9754889 10.820616,21.054963 C5.07222557,21.1337275 0.350821458,16.6044127 0.270273513,10.9347863 C0.188287211,5.26657911 4.78167762,0.604570924 10.5279105,0.523677632 C16.2734242,0.443493929 20.9962667,4.97422791 21.0775338,10.6452735" id="Fill-41" fill="#5B6A72" sketch:type="MSShapeGroup"></path>
                            <ellipse id="Oval-71" fill="#FFFFFF" sketch:type="MSShapeGroup" cx="7.55136986" cy="8.1602883" rx="2.51712329" ry="2.483566"></ellipse>
                        </g>
                        <ellipse id="Oval-72" stroke="none" fill="#FFFFFF" fill-rule="evenodd" sketch:type="MSShapeGroup" cx="66.8390411" cy="48.0261152" rx="2.51712329" ry="2.483566"></ellipse>
                    </g>
                </g>
            </g>
            <g id="Rectangle-9-+-Tururu,-I-am-here-to-4" sketch:type="MSLayerGroup" transform="translate(27.000000, 258.000000)">
                <path d="M2.40993807e-13,15.0091206 C2.41320054e-13,7.27209692 6.26128743,1 13.9998881,1 L171.000112,1 C178.732037,1 185,7.27208986 185,15.0091206 L185,50.7372209 C185,58.4742445 178.738713,64.7463415 171.000112,64.7463415 L13.9998881,64.7463415 C6.26796339,64.7463415 2.3916101e-13,58.4742516 2.39487258e-13,50.7372209 L2.40993807e-13,15.0091206 Z" id="Rectangle-9" fill="#FFFFFF" sketch:type="MSShapeGroup" transform="translate(92.500000, 32.873171) rotate(-180.000000) translate(-92.500000, -32.873171) "></path>
                <text id="I’m-hearing-consensu" sketch:type="MSTextLayer" font-family="Komika Axis" font-size="12" font-weight="normal" line-spacing="18.7999992" fill="#5B6A72">
                    <tspan x="16" y="29.7999992">I’m hearing consensus </tspan>
                    <tspan x="16" y="48.5999985">on the protocol. </tspan>
                </text>
                <path d="M85.546875,55.6425781 C85.546875,55.6425781 88.7236328,63.0175781 82.9736328,71.2675781 C77.2236328,79.5175781 63.2597656,86.2568359 63.2597656,86.2568359 C63.2597656,86.2568359 81.5097656,87.5068359 95.0097656,76.7568359 C108.509766,66.0068359 111.759766,55.2392578 111.759766,55.2392578 L85.546875,55.6425781 Z" id="Path-1702" fill="#FFFFFF" sketch:type="MSShapeGroup"></path>
            </g>
            <g id="Rectangle-9-+-Tururu,-I-am-here-to-4" sketch:type="MSLayerGroup" transform="translate(155.000000, 355.000000)">
                <path d="M-2.27373675e-13,1 L144.994379,1 C152.72947,1 159,7.27208986 159,15.0091206 L159,50.7372209 C159,58.4742445 152.730298,64.7463415 144.994379,64.7463415 L-2.30926389e-13,64.7463415 L-2.27373675e-13,1 Z" id="Rectangle-9" fill="#FFFFFF" sketch:type="MSShapeGroup" transform="translate(79.500000, 32.873171) rotate(-180.000000) translate(-79.500000, -32.873171) "></path>
                <text id="Time-does-ripen-all-" sketch:type="MSTextLayer" font-family="Komika Axis" font-size="12" font-weight="normal" line-spacing="18.7999992" fill="#5B6A72">
                    <tspan x="16" y="29.7999992">Time does ripen all </tspan>
                    <tspan x="16" y="48.5999985">things.</tspan>
                </text>
                <path d="M45.546875,53.6425781 C45.546875,53.6425781 48.7236328,61.0175781 42.9736328,69.2675781 C37.2236328,77.5175781 23.2597656,84.2568359 23.2597656,84.2568359 C23.2597656,84.2568359 41.5097656,85.5068359 55.0097656,74.7568359 C68.5097656,64.0068359 71.7597656,53.2392578 71.7597656,53.2392578 L45.546875,53.6425781 Z" id="Path-1702" fill="#FFFFFF" sketch:type="MSShapeGroup" transform="translate(47.509766, 68.770297) scale(-1, 1) translate(-47.509766, -68.770297) "></path>
            </g>
            <text id="The-aliens-finally-e" fill="#FFFFFF" sketch:type="MSTextLayer" font-family="SF Cartoonist Hand SC" font-size="18" font-weight="bold">
                <tspan x="20" y="38">The aliens finally emerge from </tspan>
                <tspan x="20" y="58">the summit with a plan.</tspan>
            </text>
            <path d="M0,209 L360,209" id="Line" stroke="#FFFFFF" stroke-width="3" stroke-linecap="square" sketch:type="MSShapeGroup"></path>
        </g>
    </g>
</svg>